<?xml version="1.0" encoding="UTF-8" standalone="no"?>
<!DOCTYPE svg PUBLIC "-//W3C//DTD SVG 1.1//EN" "http://www.w3.org/Graphics/SVG/1.1/DTD/svg11.dtd">
<svg xmlns="http://www.w3.org/2000/svg" version="1.1" viewBox="0.00 0.00 1200.00 1200.00">
<path fill="black" d="
  M 258.68 412.13
  A 0.43 0.43 0.0 0 0 258.02 411.67
  C 241.70 423.32 224.19 432.74 204.91 438.41
  C 194.28 441.54 181.53 441.40 170.75 441.02
  C 115.35 439.04 67.82 402.88 53.94 348.67
  C 36.06 278.85 68.85 219.47 118.15 172.15
  C 144.82 146.55 173.62 123.16 202.07 99.59
  C 222.52 82.64 241.73 64.29 266.91 38.65
  C 270.20 35.30 274.48 31.59 279.30 30.61
  Q 290.93 28.23 300.10 37.38
  C 318.72 55.94 334.74 72.34 357.03 91.63
  C 391.25 121.25 421.18 144.38 451.73 173.52
  Q 475.61 196.30 493.31 223.98
  C 515.56 258.78 523.61 298.43 516.51 339.21
  C 507.58 390.46 467.57 429.84 416.96 438.92
  Q 398.24 442.27 377.83 440.76
  C 353.35 438.95 331.01 425.25 310.96 412.23
  Q 310.45 411.90 310.19 411.77
  A 0.39 0.39 0.0 0 0 309.65 412.23
  C 323.94 458.27 339.10 498.85 362.68 538.98
  Q 363.26 539.97 362.11 540.00
  Q 359.96 540.05 357.26 539.67
  C 341.07 537.35 324.62 535.46 308.26 534.85
  Q 275.37 533.62 242.50 535.70
  Q 235.70 536.13 209.26 540.05
  Q 208.21 540.20 206.06 539.91
  Q 205.51 539.84 205.71 539.32
  Q 206.67 536.77 208.04 534.52
  Q 221.35 512.64 231.47 489.11
  Q 247.69 451.38 258.68 412.13
  Z"
/>
<path fill="#ff0000" d="
  M 869.39 121.65
  Q 875.70 115.72 882.04 109.83
  Q 911.45 82.51 949.22 68.74
  C 955.38 66.49 963.88 64.97 971.06 64.53
  Q 991.83 63.26 1011.52 66.43
  C 1062.82 74.69 1104.20 111.81 1118.17 161.77
  C 1133.69 217.26 1117.74 273.11 1082.57 317.87
  Q 1065.54 339.54 1050.68 353.69
  C 998.61 403.23 939.80 444.72 890.39 497.14
  C 882.91 505.07 874.97 511.45 863.52 508.35
  C 856.29 506.39 850.34 500.13 845.02 494.45
  C 811.56 458.73 772.14 427.45 734.42 395.56
  C 685.47 354.18 636.51 311.22 619.29 246.49
  C 610.38 212.99 612.84 173.97 627.06 142.23
  C 643.90 104.60 677.98 77.53 717.99 67.98
  C 726.10 66.04 736.57 64.47 745.76 64.19
  C 762.82 63.69 777.74 64.42 793.50 70.48
  Q 828.42 83.90 855.84 109.68
  Q 862.20 115.66 868.57 121.65
  Q 868.98 122.03 869.39 121.65
  Z"
/>
<path fill="black" d="
  M 849.87 917.14
  Q 844.85 902.13 834.88 888.43
  Q 819.24 866.93 802.51 846.23
  C 782.69 821.69 766.12 791.48 766.13 760.23
  C 766.14 744.51 767.98 729.08 774.52 715.25
  Q 795.91 670.02 844.25 656.50
  C 854.36 653.67 862.98 653.95 875.07 654.22
  Q 883.94 654.42 890.37 655.83
  C 934.71 665.59 968.47 703.22 971.54 748.68
  C 973.92 783.99 961.60 812.63 940.53 840.02
  Q 926.90 857.75 913.14 875.39
  C 903.37 887.91 893.12 901.91 888.30 916.95
  A 0.74 0.73 -9.5 0 0 889.44 917.76
  C 909.77 902.54 928.73 886.21 949.62 871.86
  Q 964.43 861.69 980.49 855.81
  C 1029.94 837.70 1085.22 854.90 1111.15 901.82
  C 1124.97 926.82 1127.83 956.37 1118.86 983.63
  C 1108.08 1016.40 1083.82 1039.35 1050.72 1050.35
  Q 1044.12 1052.54 1037.12 1053.31
  Q 1021.56 1055.03 1009.48 1054.00
  Q 982.22 1051.67 958.50 1036.98
  C 935.88 1022.96 916.09 1006.15 895.25 990.23
  Q 889.45 985.79 883.20 982.03
  A 0.47 0.46 16.0 0 0 882.49 982.42
  Q 882.44 984.69 883.12 987.49
  Q 894.65 1034.86 908.35 1076.08
  Q 923.31 1121.12 947.19 1162.11
  Q 947.47 1162.59 946.93 1162.71
  Q 943.66 1163.45 941.73 1163.11
  C 912.25 1157.91 884.94 1157.38 854.25 1157.81
  Q 823.21 1158.25 796.27 1163.13
  Q 794.28 1163.50 790.78 1162.69
  A 0.44 0.44 0.0 0 1 790.51 1162.03
  C 808.10 1134.33 820.77 1103.54 831.46 1071.24
  Q 846.12 1026.97 856.49 981.20
  A 0.25 0.25 0.0 0 0 856.11 980.93
  C 828.38 998.65 804.97 1021.93 776.45 1038.60
  C 761.29 1047.46 746.69 1052.32 729.50 1053.53
  C 716.03 1054.48 702.09 1054.84 689.01 1050.92
  Q 657.00 1041.32 636.75 1015.96
  C 610.27 982.79 606.41 936.31 628.34 899.55
  Q 647.38 867.65 682.73 854.52
  Q 692.21 851.00 700.75 849.90
  Q 738.62 845.01 771.53 861.69
  Q 788.30 870.18 805.47 883.74
  Q 827.08 900.80 848.87 917.85
  Q 850.55 919.16 849.87 917.14
  Z"
/>
<path fill="red" d="
  M 293.28 655.97
  C 295.11 656.64 296.74 657.40 298.18 658.85
  Q 305.57 666.33 309.23 670.78
  Q 393.94 773.88 484.85 887.65
  C 488.83 892.63 493.81 897.73 495.25 903.48
  C 498.14 914.95 492.99 920.39 485.21 930.13
  Q 407.39 1027.61 328.42 1124.17
  Q 314.61 1141.06 300.14 1157.40
  C 292.49 1166.03 276.66 1166.56 268.84 1158.19
  Q 259.58 1148.29 254.22 1141.77
  Q 163.95 1031.82 75.31 920.55
  Q 74.86 919.97 74.28 918.90
  C 70.10 911.13 72.09 901.21 77.29 894.50
  Q 83.23 886.83 89.30 879.31
  C 148.08 806.51 207.00 733.79 266.65 661.70
  C 273.26 653.72 283.76 652.46 293.28 655.97
  Z"
/>
</svg>
